:SAMPLES-PER-SECOND 25
:FULLY-SPECIFIED
:DEGREES
250
root  7.584 57.7384 -18.0363 174.356 11.6112 -179.63
RightUpLeg  -11.8593 -5.24282 -0.166024
RightLeg  16.4165 -3.73505 0.257779
RightFoot  -3.4095 -0.496576 6.53749
RightToes  2.84633e-005 7.89722e-005 -0.000426369
Spine  2.21786 -0.0520937 3.33826
Spine1  3.63351 1.83297 1.23921
HEad  29.7787 6.03071 -8.76312
LeftShoulder1  -3.88251e-019 0 -3.92111e-022
LeftArm  -36.5192 9.14271 -79.028
LeftForeArm  25.0409 -4.12586 -1.68258
LeftHand  -0.663652 -4.17262 8.32738
RightShoulder  7.45443e-017 -2.42657e-020 1.96277e-018
RightArm  -29.6604 -22.2741 72.8634
RightForeArm  26.0846 7.10265 5.82345
RightHand  -1.25284 9.20406 -10.3057
LeftUpLeg  -6.17949 -2.44955 0.158586
LeftLeg  80.4998 0.637715 6.84836
LeftFoot  -41.379 -1.71417 -7.38495
LeftToes  3.91355e-005 3.11907e-005 -4.10385e-006
251
root  8.14957 56.8144 -19.062 175.068 13.6556 -177.162
RightUpLeg  -14.5233 -7.32783 4.0768
RightLeg  24.8321 -0.0813411 -0.273286
RightFoot  -12.0288 -0.0507551 5.14792
RightToes  2.84633e-005 7.89722e-005 -0.000426369
Spine  2.44229 0.208558 4.36989
Spine1  4.12278 2.46121 3.42499
HEad  27.8581 7.35101 -9.5839
LeftShoulder1  -3.88251e-019 0 -3.92111e-022
LeftArm  -38.0852 11.043 -79.4137
LeftForeArm  25.6614 1.16903 0.476747
LeftHand  -0.612445 -3.79644 8.00082
RightShoulder  7.45443e-017 -2.42657e-020 1.96277e-018
RightArm  -29.4002 -21.2932 72.6352
RightForeArm  25.1231 7.10889 5.67509
RightHand  -1.25094 9.37682 -10.1775
LeftUpLeg  -9.49474 -3.62282 2.50875
LeftLeg  90.315 -0.561713 7.3053
LeftFoot  -29.3768 -0.881406 -6.66198
LeftToes  3.91355e-005 3.11907e-005 -4.10385e-006
252
root  8.54842 56.2714 -20.0834 175.298 15.7229 -175.377
RightUpLeg  -15.6193 -6.38927 6.28463
RightLeg  30.9857 0.656602 0.174029
RightFoot  -15.3925 0.0584047 4.61948
RightToes  2.84633e-005 7.89722e-005 -0.000426369
Spine  2.75498 0.689382 5.07199
Spine1  4.8825 3.27864 5.08045
HEad  27.0001 8.27458 -10.4357
LeftShoulder1  -3.88251e-019 0 -3.92111e-022
LeftArm  -39.3631 12.3328 -81.0747
LeftForeArm  27.4427 2.20383 2.43683
LeftHand  -0.561408 -3.0932 7.91725
RightShoulder  7.45443e-017 -2.42657e-020 1.96277e-018
RightArm  -29.4058 -19.6481 72.2697
RightForeArm  24.5188 6.33453 4.98217
RightHand  -1.22115 9.41226 -9.92293
LeftUpLeg  -12.8158 -5.42946 3.44206
LeftLeg  95.0028 -1.06918 6.41381
LeftFoot  -19.2682 0.0569922 -1.10615
LeftToes  3.91355e-005 3.11907e-005 -4.10385e-006
253
root  8.92838 56.2949 -21.1953 174.425 17.3656 -174.869
RightUpLeg  -12.9394 -5.32559 6.87195
RightLeg  32.0975 1.04862 0.4499
RightFoot  -17.4528 0.0690655 3.50671
RightToes  2.84633e-005 7.89722e-005 -0.000426369
Spine  3.17077 1.14445 5.32925
Spine1  5.87665 3.98285 5.61141
HEad  27.6063 8.48819 -10.6702
LeftShoulder1  -3.88251e-019 0 -3.92111e-022
LeftArm  -40.1434 14.1841 -83.4332
LeftForeArm  27.4486 2.00686 3.15109
LeftHand  -0.455066 -2.74069 6.71679
RightShoulder  7.45443e-017 -2.42657e-020 1.96277e-018
RightArm  -29.4384 -17.9802 71.9331
RightForeArm  24.3848 5.5906 4.26865
RightHand  -1.1627 9.11357 -9.65244
LeftUpLeg  -15.0136 -7.17981 2.95141
LeftLeg  92.377 -0.851355 7.92165
LeftFoot  -17.7682 0.225046 1.98719
LeftToes  3.91355e-005 3.11907e-005 -4.10385e-006
254
root  9.34143 56.7106 -22.3112 173.607 18.138 -175.195
RightUpLeg  -8.55894 -2.80103 6.82909
RightLeg  29.29 -0.260964 -0.392938
RightFoot  -18.5552 0.0705372 3.10484
RightToes  2.84633e-005 7.89722e-005 -0.000426369
Spine  3.34501 1.46899 5.19506
Spine1  6.40256 4.32441 5.29618
HEad  28.9409 7.91919 -9.91415
LeftShoulder1  -3.88251e-019 0 -3.92111e-022
LeftArm  -40.5963 16.5741 -85.3109
LeftForeArm  25.0351 2.09031 2.60162
LeftHand  -0.300496 -3.40365 4.23393
RightShoulder  7.45443e-017 -2.42657e-020 1.96277e-018
RightArm  -29.2352 -17.0359 71.6991
RightForeArm  24.0286 5.65183 4.31789
RightHand  -1.17713 8.9927 -9.84309
LeftUpLeg  -17.2628 -8.26209 2.47629
LeftLeg  84.5215 0.527261 11.9212
LeftFoot  -18.9219 0.251215 2.03226
LeftToes  3.91355e-005 3.11907e-005 -4.10385e-006
255
root  9.71859 57.1113 -23.3689 173.91 18.624 -175.881
RightUpLeg  -5.48337 0.186669 6.69478
RightLeg  26.1026 -2.18591 -1.39414
RightFoot  -18.7223 0.0648464 2.96832
RightToes  2.84633e-005 7.89722e-005 -0.000426369
Spine  2.99059 1.92172 4.59309
Spine1  5.87207 4.75576 4.46733
HEad  30.1171 7.05326 -8.73026
LeftShoulder1  -3.88251e-019 0 -3.92111e-022
LeftArm  -40.9224 18.6414 -85.9001
LeftForeArm  22.4602 2.15903 2.06175
LeftHand  -0.178173 -4.14868 2.44597
RightShoulder  7.45443e-017 -2.42657e-020 1.96277e-018
RightArm  -28.9389 -17.1937 71.7311
RightForeArm  23.7781 6.61103 5.14434
RightHand  -1.25032 9.35476 -10.1865
LeftUpLeg  -20.2653 -8.11999 2.50861
LeftLeg  74.2913 2.83443 12.4177
LeftFoot  -14.8777 0.174869 3.02096
LeftToes  3.91355e-005 3.11907e-005 -4.10385e-006
256
root  10.0085 57.3357 -24.394 174.537 19.4678 -176.595
RightUpLeg  -3.51998 1.0445 6.02653
RightLeg  24.0925 -2.09505 -1.25253
RightFoot  -19.4598 0.0467935 2.51622
RightToes  2.84633e-005 7.89722e-005 -0.000426369
Spine  2.56271 2.50556 3.68815
Spine1  5.16021 5.4478 3.63376
HEad  30.4418 6.62874 -8.06926
LeftShoulder1  -3.88251e-019 0 -3.92111e-022
LeftArm  -41.1192 19.7375 -85.4621
LeftForeArm  20.933 2.18987 2.09776
LeftHand  -0.209669 -3.97431 2.86981
RightShoulder  7.45443e-017 -2.42657e-020 1.96277e-018
RightArm  -28.4424 -17.8498 72.0065
RightForeArm  23.4599 8.3587 6.21949
RightHand  -1.25671 9.61825 -10.0677
LeftUpLeg  -22.2416 -6.56441 2.60778
LeftLeg  61.892 3.97698 8.64782
LeftFoot  -6.10593 -0.0739435 2.42173
LeftToes  3.91355e-005 3.11907e-005 -4.10385e-006
257
root  10.247 57.3269 -25.3985 174.483 20.4917 -176.888
RightUpLeg  -1.69781 -0.113245 5.16956
RightLeg  23.8662 0.0263857 -0.208899
RightFoot  -21.3034 0.0875795 2.65318
RightToes  2.84633e-005 7.89722e-005 -0.000426369
Spine  2.613 2.93689 2.88413
Spine1  5.34602 5.98183 3.46296
HEad  29.724 6.78903 -8.23369
LeftShoulder1  -3.88251e-019 0 -3.92111e-022
LeftArm  -41.1225 19.6188 -84.6494
LeftForeArm  20.0104 2.20177 2.34929
LeftHand  -0.341812 -3.47867 4.72389
RightShoulder  7.45443e-017 -2.42657e-020 1.96277e-018
RightArm  -26.8014 -17.7053 72.0156
RightForeArm  21.8045 10.023 7.11493
RightHand  -1.25265 9.6298 -10.0291
LeftUpLeg  -21.6051 -4.05372 2.87216
LeftLeg  47.9568 3.89457 5.03404
LeftFoot  2.37594 0.0124049 -0.258073
LeftToes  3.91355e-005 3.11907e-005 -4.10385e-006
258
root  10.4932 57.1412 -26.4041 173.917 21.3124 -177.057
RightUpLeg  -0.148536 -1.43381 4.31224
RightLeg  25.5344 2.18824 0.91873
RightFoot  -23.6361 0.159494 2.96988
RightToes  2.84633e-005 7.89722e-005 -0.000426369
Spine  2.95035 3.08305 2.12945
Spine1  6.0229 6.06235 3.63009
HEad  28.9825 7.38302 -8.98695
LeftShoulder1  -3.88251e-019 0 -3.92111e-022
LeftArm  -40.9488 18.8057 -83.7886
LeftForeArm  19.8239 2.1995 2.51886
LeftHand  -0.430461 -3.54046 5.85309
RightShoulder  7.45443e-017 -2.42657e-020 1.96277e-018
RightArm  -25.2926 -16.2275 71.2838
RightForeArm  21.726 9.96512 7.85602
RightHand  -1.32739 9.92046 -10.4106
LeftUpLeg  -18.9117 -1.77281 3.11111
LeftLeg  34.0279 3.10227 2.62355
LeftFoot  8.27941 0.193945 -1.44923
LeftToes  3.91355e-005 3.11907e-005 -4.10385e-006
259
root  10.7412 56.6974 -27.4935 173.741 21.6434 -177.124
RightUpLeg  0.13149 -2.59607 3.56819
RightLeg  29.5664 3.27792 1.78128
RightFoot  -27.1493 0.16298 2.52757
RightToes  2.84633e-005 7.89722e-005 -0.000426369
Spine  2.94755 2.91857 1.438
Spine1  5.93581 5.53408 3.98509
HEad  29.6161 8.57327 -9.96624
LeftShoulder1  -3.88251e-019 0 -3.92111e-022
LeftArm  -40.7345 18.4458 -83.0001
LeftForeArm  20.0878 2.19252 2.61488
LeftHand  -0.439209 -3.857 5.78161
RightShoulder  7.45443e-017 -2.42657e-020 1.96277e-018
RightArm  -25.1633 -14.3035 70.1238
RightForeArm  25.7689 8.27718 8.24261
RightHand  -1.33834 10.3174 -10.245
LeftUpLeg  -16.0698 -0.721505 3.26002
LeftLeg  22.1462 1.6921 1.08329
LeftFoot  12.6505 0.264561 -1.61745
LeftToes  3.91355e-005 3.11907e-005 -4.10385e-006
260
root  10.9958 55.9602 -28.7559 174.129 21.0808 -176.722
RightUpLeg  -0.220526 -3.81903 3.24432
RightLeg  34.8505 3.44964 2.33379
RightFoot  -32.0241 0.264344 2.64972
RightToes  2.84633e-005 7.89722e-005 -0.000426369
Spine  2.47253 2.38048 1.18594
Spine1  4.85404 4.27634 4.78381
HEad  31.5204 10.0668 -10.6935
LeftShoulder1  -3.88251e-019 0 -3.92111e-022
LeftArm  -40.6113 18.7352 -82.3147
LeftForeArm  19.3766 2.20685 2.69034
LeftHand  -0.469033 -3.78943 6.19657
RightShoulder  7.45443e-017 -2.42657e-020 1.96277e-018
RightArm  -25.4316 -13.0952 69.0385
RightForeArm  29.6029 7.09309 8.10422
RightHand  -1.23563 10.2815 -9.51154
LeftUpLeg  -13.5745 1.56847 2.97781
LeftLeg  12.9912 0.0991387 0.933661
LeftFoot  16.2997 0.525409 -2.54819
LeftToes  3.91355e-005 3.11907e-005 -4.10385e-006
261
root  11.2678 55.0031 -30.1721 174.428 19.2808 -175.998
RightUpLeg  0.0972737 -4.9198 3.38673
RightLeg  40.1355 2.96034 2.3994
RightFoot  -37.1535 0.628418 3.85098
RightToes  2.84633e-005 7.89722e-005 -0.000426369
Spine  1.98035 1.54753 1.2637
Spine1  3.69949 2.42886 5.84161
HEad  33.437 10.937 -10.9548
LeftShoulder1  -3.88251e-019 0 -3.92111e-022
LeftArm  -40.464 18.5569 -81.5921
LeftForeArm  18.2762 2.22648 2.7166
LeftHand  -0.54379 -3.60542 7.27461
RightShoulder  7.45443e-017 -2.42657e-020 1.96277e-018
RightArm  -25.6039 -13.0833 67.9681
RightForeArm  28.9495 7.47421 8.00289
RightHand  -1.25344 10.1074 -9.74483
LeftUpLeg  -11.2256 2.53671 3.04841
LeftLeg  6.88957 3.01095 1.10813
LeftFoot  20.0685 1.07233 -4.25669
LeftToes  3.91355e-005 3.11907e-005 -4.10385e-006
262
root  11.5012 53.8113 -31.7526 174.492 16.2522 -174.718
RightUpLeg  1.44006 -6.73173 3.99491
RightLeg  45.3825 2.05036 1.91306
RightFoot  -42.383 0.951124 4.47975
RightToes  2.84633e-005 7.89722e-005 -0.000426369
Spine  1.58966 0.610117 1.84035
Spine1  2.75208 0.370145 7.2372
HEad  34.6756 10.7626 -11.0007
LeftShoulder1  -3.88251e-019 0 -3.92111e-022
LeftArm  -40.0102 17.3196 -80.8496
LeftForeArm  19.0329 2.21055 2.67156
LeftHand  -0.573427 -3.76498 7.53384
RightShoulder  7.45443e-017 -2.42657e-020 1.96277e-018
RightArm  -25.2024 -14.6523 66.747
RightForeArm  24.836 9.16201 8.15966
RightHand  -1.40769 10.0862 -10.9021
LeftUpLeg  -10.2287 2.84763 3.45767
LeftLeg  6.39972 7.68932 1.42741
LeftFoot  22.9774 1.4207 -5.08924
LeftToes  3.91355e-005 3.11907e-005 -4.10385e-006
